<svg width="18" height="18" viewBox="0 0 18 18" fill="none" xmlns="http://www.w3.org/2000/svg">
<path fill-rule="evenodd" clip-rule="evenodd" d="M15.41 2.59002C16.1967 3.37672 16.1967 4.6522 15.41 5.4389L11.8489 9L15.41 12.5611C16.1967 13.3478 16.1967 14.6233 15.41 15.41C14.6233 16.1967 13.3478 16.1967 12.5611 15.41L9.00003 11.8489L5.43893 15.41C4.65224 16.1967 3.37675 16.1967 2.59005 15.41C1.80336 14.6233 1.80336 13.3478 2.59005 12.5611L6.15044 8.99929L2.59005 5.4389C1.80336 4.6522 1.80336 3.37672 2.59005 2.59002C3.37675 1.80333 4.65224 1.80333 5.43893 2.59002L8.99932 6.15041L12.5611 2.59002C13.3478 1.80333 14.6233 1.80333 15.41 2.59002Z" fill="#18181C"/>
</svg>
