<svg width="18" height="18" viewBox="0 0 18 18" fill="none" xmlns="http://www.w3.org/2000/svg">
<path fill-rule="evenodd" clip-rule="evenodd" d="M9.00003 0C13.95 0 18 4.05 18 9C18 13.95 13.95 18 9.00003 18C4.05003 18 3.05176e-05 13.95 3.05176e-05 9C3.05176e-05 4.05 4.05003 0 9.00003 0ZM8.35151 7.61538C8.02437 7.61538 7.67851 7.671 7.31247 7.78213C7.06845 7.85602 6.81704 7.94 6.55792 8.03398L6.16345 8.18244L6.00003 8.82041L6.12697 8.77719L6.42765 8.68578C6.59315 8.63896 6.75552 8.61476 6.9135 8.61476C7.23605 8.61476 7.45331 8.66737 7.56716 8.771C7.68102 8.87493 7.73821 9.05978 7.73821 9.32405C7.73821 9.47019 7.72012 9.63253 7.68259 9.80898C7.65792 9.92735 7.62915 10.0502 7.59661 10.1777L7.545 10.3724L6.93389 12.4418C6.87952 12.6593 6.83979 12.8538 6.81481 13.0266C6.79003 13.1991 6.77811 13.3685 6.77811 13.5331C6.77811 13.9584 6.94236 14.309 7.27076 14.5857C7.59916 14.8613 8.0596 15 8.65158 15C9.03706 15 9.37539 14.9518 9.66657 14.8549L9.99063 14.7436L10.837 14.433L11 13.7956L10.9271 13.825L10.7235 13.8902C10.6832 13.9018 10.6397 13.9138 10.5931 13.9261C10.4061 13.9754 10.2377 14.0005 10.0898 14.0005C9.77468 14.0005 9.55282 13.9511 9.42401 13.8518C9.29614 13.7525 9.23237 13.5656 9.23237 13.2919C9.23237 13.2269 9.23929 13.1427 9.25353 13.04L9.29186 12.8103C9.31785 12.6683 9.34646 12.5369 9.37741 12.416L9.42558 12.2425L10.0341 10.1815C10.0937 9.99233 10.1345 9.78438 10.1565 9.55742L10.1843 9.22335L10.1894 9.08259C10.1894 8.64797 10.0302 8.29527 9.71163 8.0232C9.39306 7.75132 8.93941 7.61538 8.35151 7.61538ZM9.00483 3C8.59166 3 8.23799 3.13568 7.94293 3.40714C7.64788 3.67902 7.50003 4.00607 7.50003 4.38765C7.50003 4.76997 7.64788 5.09639 7.94293 5.36497C8.23853 5.63441 8.59156 5.76923 9.00483 5.76923C9.4168 5.76923 9.76897 5.63441 10.0612 5.36497C10.3542 5.09649 10.5 4.76997 10.5 4.38765C10.5 4.00618 10.3544 3.67902 10.0612 3.40714C9.76897 3.136 9.41669 3 9.00483 3Z" fill="#18181C"/>
</svg>
