<svg width="24" height="24" viewBox="0 0 24 24" fill="none" xmlns="http://www.w3.org/2000/svg">
<path fill-rule="evenodd" clip-rule="evenodd" d="M23.6133 0.41287C23.0976 -0.136322 22.2616 -0.136321 21.7459 0.412871L1.85261 21.6003C1.33697 22.1495 1.33697 23.0399 1.85261 23.5891C2.36826 24.1383 3.20429 24.1383 3.71994 23.5891L7.20412 19.8783C8.67699 20.6165 10.2497 21.0157 11.8836 21.0157C16.5777 21.0157 20.767 17.7208 23.5338 12.557C23.845 11.9749 23.845 11.1282 23.5338 10.5461C22.5926 8.78948 21.4867 7.24912 20.2524 5.98117L23.6133 2.40167C24.1289 1.85248 24.1289 0.962061 23.6133 0.41287ZM17.5638 8.84463L15.9159 10.5998C15.9793 10.9063 16.0128 11.2248 16.0128 11.5516C16.0128 13.9804 14.1641 15.9494 11.8836 15.9494C11.5767 15.9494 11.2777 15.9138 10.9899 15.8462L9.34379 17.5994C10.1193 17.9692 10.9789 18.1748 11.8836 18.1748C15.3198 18.1748 18.1049 15.2113 18.1049 11.5516C18.1049 10.5873 17.9115 9.67108 17.5638 8.84463ZM16.4372 3.16277C15.0007 2.46429 13.471 2.08747 11.8836 2.08747C7.18952 2.08747 3.00016 5.38236 0.233396 10.5461C-0.0777988 11.1282 -0.0777988 11.9749 0.233396 12.557C1.15081 14.2693 2.22464 15.776 3.42142 17.0253L6.14835 14.121C5.83534 13.3301 5.66231 12.461 5.66231 11.5488C5.66231 7.88904 8.44738 4.92559 11.8836 4.92559C12.7394 4.92559 13.5548 5.10957 14.2968 5.44242L16.4372 3.16277ZM12.6238 7.22423C12.3837 7.17794 12.1363 7.15376 11.8836 7.15376C9.6031 7.15376 7.75439 9.12274 7.75439 11.5516C7.75439 11.8207 7.77708 12.0842 7.82055 12.34L12.6238 7.22423Z" fill="#18181C"/>
</svg>
