<svg width="24" height="24" viewBox="0 0 24 24" fill="none" xmlns="http://www.w3.org/2000/svg">
<path fill-rule="evenodd" clip-rule="evenodd" d="M12 3.00586C16.7401 3.00586 20.9705 6.12981 23.7643 11.0257C24.0786 11.5776 24.0786 12.3803 23.7643 12.9322C20.9705 17.8281 16.7401 20.9521 12 20.9521C7.25994 20.9521 3.02954 17.8281 0.235682 12.9322C-0.0785608 12.3803 -0.0785608 11.5776 0.235682 11.0257C3.02954 6.12981 7.25994 3.00586 12 3.00586ZM5.71778 11.9763C5.71778 15.4462 8.53012 18.2585 12 18.2585C15.4699 18.2585 18.2822 15.4488 18.2822 11.979C18.2822 8.50908 15.4699 5.69673 12 5.69673C8.53012 5.69673 5.71778 8.50644 5.71778 11.9763ZM16.1697 11.979C16.1697 14.2818 14.3028 16.1486 12 16.1486C9.69716 16.1486 7.83034 14.2818 7.83034 11.979C7.83034 9.67613 9.69716 7.8093 12 7.8093C14.3028 7.8093 16.1697 9.67613 16.1697 11.979Z" fill="#18181C"/>
</svg>
